<mxfile host="app.diagrams.net" modified="2021-09-07T05:49:37.780Z" agent="5.0 (Macintosh; Intel Mac OS X 10_15_7) AppleWebKit/537.36 (KHTML, like Gecko) Chrome/92.0.4515.159 Safari/537.36 Edg/92.0.902.84" etag="lgDsJIQc1-1Gdp0tGpki" version="15.1.0" type="github" pages="3">
  <diagram id="qw9rI07wksaECOxZq3Me" name="第 1 页">
    <mxGraphModel dx="1426" dy="716" grid="1" gridSize="10" guides="1" tooltips="1" connect="1" arrows="1" fold="1" page="1" pageScale="1" pageWidth="413" pageHeight="291" math="0" shadow="0">
      <root>
        <mxCell id="0" />
        <mxCell id="1" parent="0" />
        <mxCell id="wL68jLW9mCfYWidtdzE7-35" value="" style="rounded=1;arcSize=10;dashed=1;strokeColor=#000000;fillColor=none;gradientColor=none;dashPattern=8 3 1 3;strokeWidth=2;sketch=0;" parent="1" vertex="1">
          <mxGeometry x="550" y="280" width="400" height="375" as="geometry" />
        </mxCell>
        <mxCell id="wL68jLW9mCfYWidtdzE7-59" value="" style="rounded=1;arcSize=10;dashed=1;strokeColor=#000000;fillColor=none;gradientColor=none;dashPattern=8 3 1 3;strokeWidth=2;sketch=0;" parent="1" vertex="1">
          <mxGeometry x="1380" y="358" width="200" height="297" as="geometry" />
        </mxCell>
        <mxCell id="wL68jLW9mCfYWidtdzE7-33" value="" style="rounded=1;arcSize=10;dashed=1;strokeColor=#000000;fillColor=none;gradientColor=none;dashPattern=8 3 1 3;strokeWidth=2;sketch=0;" parent="1" vertex="1">
          <mxGeometry x="220" y="355" width="270" height="140" as="geometry" />
        </mxCell>
        <mxCell id="wL68jLW9mCfYWidtdzE7-45" value="" style="rounded=1;arcSize=10;dashed=1;strokeColor=#000000;fillColor=none;gradientColor=none;dashPattern=8 3 1 3;strokeWidth=2;sketch=0;" parent="1" vertex="1">
          <mxGeometry x="1010" y="280" width="310" height="375" as="geometry" />
        </mxCell>
        <mxCell id="7sA82I2yNGj9qkQ9EEGA-17" value="" style="edgeStyle=elbowEdgeStyle;elbow=vertical;endArrow=classic;html=1;exitX=0.5;exitY=0;exitDx=0;exitDy=0;entryX=0.5;entryY=0;entryDx=0;entryDy=0;" parent="1" source="wL68jLW9mCfYWidtdzE7-2" target="7sA82I2yNGj9qkQ9EEGA-32" edge="1">
          <mxGeometry width="50" height="50" relative="1" as="geometry">
            <mxPoint x="550" y="415" as="sourcePoint" />
            <mxPoint x="180" y="415" as="targetPoint" />
            <Array as="points">
              <mxPoint x="250" y="315" />
            </Array>
          </mxGeometry>
        </mxCell>
        <mxCell id="7sA82I2yNGj9qkQ9EEGA-32" value="&lt;b&gt;E2E Design&lt;/b&gt;" style="rounded=1;whiteSpace=wrap;html=1;sketch=0;strokeWidth=2;fillColor=none;" parent="1" vertex="1">
          <mxGeometry x="40" y="415" width="120" height="60" as="geometry" />
        </mxCell>
        <mxCell id="wL68jLW9mCfYWidtdzE7-2" value="&lt;b&gt;Review &amp;amp; Approve&lt;/b&gt;" style="rounded=1;whiteSpace=wrap;html=1;sketch=0;strokeWidth=2;fillColor=none;" parent="1" vertex="1">
          <mxGeometry x="330" y="415" width="120" height="60" as="geometry" />
        </mxCell>
        <mxCell id="wL68jLW9mCfYWidtdzE7-3" value="Merge Request" style="text;html=1;strokeColor=none;fillColor=none;align=center;verticalAlign=middle;whiteSpace=wrap;rounded=0;sketch=0;" parent="1" vertex="1">
          <mxGeometry x="230" y="415" width="90" height="20" as="geometry" />
        </mxCell>
        <mxCell id="wL68jLW9mCfYWidtdzE7-11" value="&lt;font style=&quot;font-size: 18px&quot;&gt;×&lt;/font&gt;" style="text;html=1;align=center;verticalAlign=middle;resizable=0;points=[];autosize=1;" parent="1" vertex="1">
          <mxGeometry x="215" y="284" width="30" height="20" as="geometry" />
        </mxCell>
        <mxCell id="wL68jLW9mCfYWidtdzE7-12" value="&lt;b&gt;Green&lt;/b&gt;" style="rounded=1;whiteSpace=wrap;html=1;sketch=0;strokeWidth=2;fillColor=none;" parent="1" vertex="1">
          <mxGeometry x="590" y="412" width="120" height="60" as="geometry" />
        </mxCell>
        <mxCell id="wL68jLW9mCfYWidtdzE7-13" value="&lt;b&gt;Refactor&lt;/b&gt;" style="rounded=1;whiteSpace=wrap;html=1;sketch=0;strokeWidth=2;fillColor=none;" parent="1" vertex="1">
          <mxGeometry x="790" y="373" width="120" height="60" as="geometry" />
        </mxCell>
        <mxCell id="wL68jLW9mCfYWidtdzE7-16" value="&lt;b&gt;Red&lt;/b&gt;" style="rounded=1;whiteSpace=wrap;html=1;sketch=0;strokeWidth=2;fillColor=none;" parent="1" vertex="1">
          <mxGeometry x="590" y="331" width="120" height="60" as="geometry" />
        </mxCell>
        <mxCell id="wL68jLW9mCfYWidtdzE7-18" value="" style="edgeStyle=segmentEdgeStyle;endArrow=classic;html=1;" parent="1" edge="1">
          <mxGeometry width="50" height="50" relative="1" as="geometry">
            <mxPoint x="650" y="390" as="sourcePoint" />
            <mxPoint x="650" y="414" as="targetPoint" />
            <Array as="points">
              <mxPoint x="650" y="404" />
              <mxPoint x="650" y="404" />
            </Array>
          </mxGeometry>
        </mxCell>
        <mxCell id="wL68jLW9mCfYWidtdzE7-25" value="&lt;b&gt;Build,&lt;br&gt;Code Scanning &amp;amp; Unit Testing&lt;br&gt;&lt;/b&gt;" style="rounded=1;whiteSpace=wrap;html=1;sketch=0;strokeWidth=2;fillColor=none;" parent="1" vertex="1">
          <mxGeometry x="1119" y="490" width="120" height="60" as="geometry" />
        </mxCell>
        <mxCell id="wL68jLW9mCfYWidtdzE7-29" value="Merge Request" style="text;html=1;strokeColor=none;fillColor=none;align=center;verticalAlign=middle;whiteSpace=wrap;rounded=0;sketch=0;" parent="1" vertex="1">
          <mxGeometry x="1020" y="415" width="90" height="20" as="geometry" />
        </mxCell>
        <mxCell id="wL68jLW9mCfYWidtdzE7-34" value="&lt;b&gt;&lt;font style=&quot;font-size: 14px&quot;&gt;Gitlab&lt;/font&gt;&lt;/b&gt;" style="text;html=1;strokeColor=none;fillColor=none;align=center;verticalAlign=middle;whiteSpace=wrap;rounded=0;sketch=0;" parent="1" vertex="1">
          <mxGeometry x="240" y="365" width="40" height="20" as="geometry" />
        </mxCell>
        <mxCell id="wL68jLW9mCfYWidtdzE7-36" value="&lt;b&gt;&lt;font style=&quot;font-size: 14px&quot;&gt;Visual Studio Code&lt;/font&gt;&lt;/b&gt;" style="text;html=1;strokeColor=none;fillColor=none;align=center;verticalAlign=middle;whiteSpace=wrap;rounded=0;sketch=0;" parent="1" vertex="1">
          <mxGeometry x="570" y="295" width="130" height="20" as="geometry" />
        </mxCell>
        <mxCell id="wL68jLW9mCfYWidtdzE7-37" value="TDD" style="text;html=1;strokeColor=none;fillColor=none;align=center;verticalAlign=middle;whiteSpace=wrap;rounded=0;sketch=0;" parent="1" vertex="1">
          <mxGeometry x="730" y="394" width="40" height="20" as="geometry" />
        </mxCell>
        <mxCell id="wL68jLW9mCfYWidtdzE7-40" value="&lt;b&gt;Review &amp;amp; Approve&lt;/b&gt;" style="rounded=1;whiteSpace=wrap;html=1;sketch=0;strokeWidth=2;fillColor=none;" parent="1" vertex="1">
          <mxGeometry x="1119" y="410" width="120" height="60" as="geometry" />
        </mxCell>
        <mxCell id="wL68jLW9mCfYWidtdzE7-41" value="&lt;b&gt;Merge&lt;/b&gt;" style="rounded=1;whiteSpace=wrap;html=1;sketch=0;strokeWidth=2;fillColor=none;" parent="1" vertex="1">
          <mxGeometry x="1119" y="570" width="120" height="60" as="geometry" />
        </mxCell>
        <mxCell id="wL68jLW9mCfYWidtdzE7-42" value="" style="endArrow=classic;html=1;exitX=0.5;exitY=1;exitDx=0;exitDy=0;" parent="1" source="wL68jLW9mCfYWidtdzE7-40" target="wL68jLW9mCfYWidtdzE7-25" edge="1">
          <mxGeometry width="50" height="50" relative="1" as="geometry">
            <mxPoint x="1389" y="310" as="sourcePoint" />
            <mxPoint x="1439" y="260" as="targetPoint" />
          </mxGeometry>
        </mxCell>
        <mxCell id="wL68jLW9mCfYWidtdzE7-44" value="" style="endArrow=classic;html=1;exitX=0.5;exitY=1;exitDx=0;exitDy=0;" parent="1" source="wL68jLW9mCfYWidtdzE7-25" target="wL68jLW9mCfYWidtdzE7-41" edge="1">
          <mxGeometry width="50" height="50" relative="1" as="geometry">
            <mxPoint x="1509" y="320" as="sourcePoint" />
            <mxPoint x="1559" y="270" as="targetPoint" />
          </mxGeometry>
        </mxCell>
        <mxCell id="wL68jLW9mCfYWidtdzE7-46" value="" style="endArrow=classic;html=1;exitX=1;exitY=0.5;exitDx=0;exitDy=0;entryX=0;entryY=0.5;entryDx=0;entryDy=0;" parent="1" source="7sA82I2yNGj9qkQ9EEGA-32" target="wL68jLW9mCfYWidtdzE7-2" edge="1">
          <mxGeometry width="50" height="50" relative="1" as="geometry">
            <mxPoint x="160" y="445" as="sourcePoint" />
            <mxPoint x="355" y="445" as="targetPoint" />
          </mxGeometry>
        </mxCell>
        <mxCell id="wL68jLW9mCfYWidtdzE7-51" value="&lt;font style=&quot;font-size: 18px&quot;&gt;×&lt;/font&gt;" style="text;html=1;align=center;verticalAlign=middle;resizable=0;points=[];autosize=1;rotation=90;" parent="1" vertex="1">
          <mxGeometry x="1284" y="470" width="30" height="20" as="geometry" />
        </mxCell>
        <mxCell id="wL68jLW9mCfYWidtdzE7-52" value="&lt;b&gt;&lt;font style=&quot;font-size: 14px&quot;&gt;Gitlab&lt;/font&gt;&lt;/b&gt;" style="text;html=1;strokeColor=none;fillColor=none;align=center;verticalAlign=middle;whiteSpace=wrap;rounded=0;sketch=0;" parent="1" vertex="1">
          <mxGeometry x="1030" y="291" width="40" height="20" as="geometry" />
        </mxCell>
        <mxCell id="wL68jLW9mCfYWidtdzE7-53" value="&lt;b&gt;E2E Testing&lt;/b&gt;" style="rounded=1;whiteSpace=wrap;html=1;sketch=0;strokeWidth=2;fillColor=none;" parent="1" vertex="1">
          <mxGeometry x="1420" y="495" width="120" height="60" as="geometry" />
        </mxCell>
        <mxCell id="wL68jLW9mCfYWidtdzE7-54" value="&lt;b&gt;Deploy&lt;/b&gt;" style="rounded=1;whiteSpace=wrap;html=1;sketch=0;strokeWidth=2;fillColor=none;" parent="1" vertex="1">
          <mxGeometry x="1420" y="415" width="120" height="60" as="geometry" />
        </mxCell>
        <mxCell id="wL68jLW9mCfYWidtdzE7-55" value="&lt;b&gt;&lt;font style=&quot;font-size: 12px&quot;&gt;√&lt;/font&gt;&lt;/b&gt;" style="text;html=1;strokeColor=none;fillColor=none;align=center;verticalAlign=middle;whiteSpace=wrap;rounded=0;sketch=0;" parent="1" vertex="1">
          <mxGeometry x="1179" y="470" width="40" height="20" as="geometry" />
        </mxCell>
        <mxCell id="wL68jLW9mCfYWidtdzE7-56" value="&lt;b&gt;&lt;font style=&quot;font-size: 12px&quot;&gt;√&lt;/font&gt;&lt;/b&gt;" style="text;html=1;strokeColor=none;fillColor=none;align=center;verticalAlign=middle;whiteSpace=wrap;rounded=0;sketch=0;" parent="1" vertex="1">
          <mxGeometry x="1179" y="550" width="40" height="20" as="geometry" />
        </mxCell>
        <mxCell id="wL68jLW9mCfYWidtdzE7-60" value="&lt;b&gt;&lt;font style=&quot;font-size: 14px&quot;&gt;CTest&lt;/font&gt;&lt;/b&gt;" style="text;html=1;strokeColor=none;fillColor=none;align=center;verticalAlign=middle;whiteSpace=wrap;rounded=0;sketch=0;" parent="1" vertex="1">
          <mxGeometry x="1400" y="365" width="40" height="20" as="geometry" />
        </mxCell>
        <mxCell id="wL68jLW9mCfYWidtdzE7-63" value="&lt;font style=&quot;font-size: 20px&quot;&gt;&lt;b&gt;Continuous Integration&lt;/b&gt;&lt;/font&gt;" style="text;html=1;strokeColor=none;fillColor=none;align=center;verticalAlign=middle;whiteSpace=wrap;rounded=0;sketch=0;" parent="1" vertex="1">
          <mxGeometry x="40" y="198" width="230" height="20" as="geometry" />
        </mxCell>
        <mxCell id="wL68jLW9mCfYWidtdzE7-64" value="&lt;font style=&quot;font-size: 20px&quot;&gt;&lt;b&gt;Continuous Deployment&lt;/b&gt;&lt;/font&gt;" style="text;html=1;strokeColor=none;fillColor=none;align=center;verticalAlign=middle;whiteSpace=wrap;rounded=0;sketch=0;" parent="1" vertex="1">
          <mxGeometry x="1380" y="198" width="240" height="20" as="geometry" />
        </mxCell>
        <mxCell id="wL68jLW9mCfYWidtdzE7-65" value="" style="endArrow=classic;html=1;" parent="1" edge="1">
          <mxGeometry width="50" height="50" relative="1" as="geometry">
            <mxPoint x="1479.5" y="475" as="sourcePoint" />
            <mxPoint x="1479.5" y="495" as="targetPoint" />
            <Array as="points" />
          </mxGeometry>
        </mxCell>
        <mxCell id="wL68jLW9mCfYWidtdzE7-66" value="" style="edgeStyle=elbowEdgeStyle;elbow=horizontal;endArrow=classic;html=1;exitX=1;exitY=0.5;exitDx=0;exitDy=0;entryX=0;entryY=0.5;entryDx=0;entryDy=0;" parent="1" source="wL68jLW9mCfYWidtdzE7-2" target="wL68jLW9mCfYWidtdzE7-16" edge="1">
          <mxGeometry width="50" height="50" relative="1" as="geometry">
            <mxPoint x="500" y="475" as="sourcePoint" />
            <mxPoint x="550" y="425" as="targetPoint" />
          </mxGeometry>
        </mxCell>
        <mxCell id="wL68jLW9mCfYWidtdzE7-67" value="&lt;b&gt;&lt;font style=&quot;font-size: 12px&quot;&gt;√&lt;/font&gt;&lt;/b&gt;" style="text;html=1;strokeColor=none;fillColor=none;align=center;verticalAlign=middle;whiteSpace=wrap;rounded=0;sketch=0;" parent="1" vertex="1">
          <mxGeometry x="484" y="415" width="40" height="20" as="geometry" />
        </mxCell>
        <mxCell id="wL68jLW9mCfYWidtdzE7-73" value="" style="edgeStyle=segmentEdgeStyle;endArrow=classic;html=1;entryX=0.5;entryY=1;entryDx=0;entryDy=0;exitX=1;exitY=0.5;exitDx=0;exitDy=0;" parent="1" source="wL68jLW9mCfYWidtdzE7-12" target="wL68jLW9mCfYWidtdzE7-13" edge="1">
          <mxGeometry width="50" height="50" relative="1" as="geometry">
            <mxPoint x="820" y="585" as="sourcePoint" />
            <mxPoint x="870" y="535" as="targetPoint" />
          </mxGeometry>
        </mxCell>
        <mxCell id="wL68jLW9mCfYWidtdzE7-74" value="&lt;b&gt;Style&lt;/b&gt;" style="rounded=1;whiteSpace=wrap;html=1;sketch=0;strokeWidth=2;fillColor=none;" parent="1" vertex="1">
          <mxGeometry x="590" y="492" width="120" height="60" as="geometry" />
        </mxCell>
        <mxCell id="wL68jLW9mCfYWidtdzE7-76" value="&lt;b&gt;Snapshot&lt;/b&gt;" style="rounded=1;whiteSpace=wrap;html=1;sketch=0;strokeWidth=2;fillColor=none;" parent="1" vertex="1">
          <mxGeometry x="590" y="572" width="120" height="60" as="geometry" />
        </mxCell>
        <mxCell id="wL68jLW9mCfYWidtdzE7-82" value="" style="edgeStyle=segmentEdgeStyle;endArrow=classic;html=1;" parent="1" edge="1">
          <mxGeometry width="50" height="50" relative="1" as="geometry">
            <mxPoint x="650" y="472" as="sourcePoint" />
            <mxPoint x="650" y="492" as="targetPoint" />
            <Array as="points">
              <mxPoint x="650" y="492" />
            </Array>
          </mxGeometry>
        </mxCell>
        <mxCell id="wL68jLW9mCfYWidtdzE7-84" value="" style="edgeStyle=segmentEdgeStyle;endArrow=classic;html=1;exitX=0.5;exitY=1;exitDx=0;exitDy=0;" parent="1" source="wL68jLW9mCfYWidtdzE7-74" edge="1">
          <mxGeometry width="50" height="50" relative="1" as="geometry">
            <mxPoint x="660" y="552" as="sourcePoint" />
            <mxPoint x="650" y="572" as="targetPoint" />
            <Array as="points">
              <mxPoint x="650" y="572" />
            </Array>
          </mxGeometry>
        </mxCell>
        <mxCell id="wL68jLW9mCfYWidtdzE7-85" value="" style="edgeStyle=elbowEdgeStyle;elbow=horizontal;endArrow=classic;html=1;" parent="1" target="wL68jLW9mCfYWidtdzE7-40" edge="1">
          <mxGeometry width="50" height="50" relative="1" as="geometry">
            <mxPoint x="710" y="600" as="sourcePoint" />
            <mxPoint x="860" y="585" as="targetPoint" />
            <Array as="points">
              <mxPoint x="980" y="525" />
            </Array>
          </mxGeometry>
        </mxCell>
        <mxCell id="wL68jLW9mCfYWidtdzE7-86" value="" style="edgeStyle=elbowEdgeStyle;elbow=horizontal;endArrow=classic;html=1;exitX=1;exitY=0.5;exitDx=0;exitDy=0;" parent="1" source="wL68jLW9mCfYWidtdzE7-40" edge="1">
          <mxGeometry width="50" height="50" relative="1" as="geometry">
            <mxPoint x="1300" y="455" as="sourcePoint" />
            <mxPoint x="710" y="365" as="targetPoint" />
            <Array as="points">
              <mxPoint x="1280" y="425" />
            </Array>
          </mxGeometry>
        </mxCell>
        <mxCell id="wL68jLW9mCfYWidtdzE7-87" value="" style="edgeStyle=elbowEdgeStyle;elbow=horizontal;endArrow=classic;html=1;exitX=1;exitY=0.5;exitDx=0;exitDy=0;" parent="1" source="wL68jLW9mCfYWidtdzE7-25" edge="1">
          <mxGeometry width="50" height="50" relative="1" as="geometry">
            <mxPoint x="1250" y="455" as="sourcePoint" />
            <mxPoint x="710" y="365" as="targetPoint" />
            <Array as="points">
              <mxPoint x="1280" y="445" />
            </Array>
          </mxGeometry>
        </mxCell>
        <mxCell id="wL68jLW9mCfYWidtdzE7-88" value="" style="edgeStyle=elbowEdgeStyle;elbow=horizontal;endArrow=classic;html=1;exitX=1;exitY=0.5;exitDx=0;exitDy=0;entryX=0;entryY=0.5;entryDx=0;entryDy=0;" parent="1" source="wL68jLW9mCfYWidtdzE7-41" target="wL68jLW9mCfYWidtdzE7-54" edge="1">
          <mxGeometry width="50" height="50" relative="1" as="geometry">
            <mxPoint x="1290" y="625" as="sourcePoint" />
            <mxPoint x="1340" y="575" as="targetPoint" />
            <Array as="points">
              <mxPoint x="1350" y="525" />
            </Array>
          </mxGeometry>
        </mxCell>
        <mxCell id="wL68jLW9mCfYWidtdzE7-89" value="&lt;b&gt;Report&lt;/b&gt;" style="rounded=1;whiteSpace=wrap;html=1;sketch=0;strokeWidth=2;fillColor=none;" parent="1" vertex="1">
          <mxGeometry x="1420" y="575" width="120" height="60" as="geometry" />
        </mxCell>
        <mxCell id="wL68jLW9mCfYWidtdzE7-90" value="" style="endArrow=classic;html=1;exitX=0.5;exitY=1;exitDx=0;exitDy=0;" parent="1" source="wL68jLW9mCfYWidtdzE7-53" target="wL68jLW9mCfYWidtdzE7-89" edge="1">
          <mxGeometry width="50" height="50" relative="1" as="geometry">
            <mxPoint x="1489.5" y="485" as="sourcePoint" />
            <mxPoint x="1489.5" y="505" as="targetPoint" />
            <Array as="points" />
          </mxGeometry>
        </mxCell>
        <mxCell id="wL68jLW9mCfYWidtdzE7-91" value="" style="endArrow=none;dashed=1;html=1;" parent="1" edge="1">
          <mxGeometry width="50" height="50" relative="1" as="geometry">
            <mxPoint x="1350" y="698" as="sourcePoint" />
            <mxPoint x="1350" y="175" as="targetPoint" />
          </mxGeometry>
        </mxCell>
        <mxCell id="wL68jLW9mCfYWidtdzE7-97" value="" style="edgeStyle=segmentEdgeStyle;endArrow=classic;html=1;entryX=1;entryY=0.5;entryDx=0;entryDy=0;exitX=0.5;exitY=0;exitDx=0;exitDy=0;" parent="1" source="wL68jLW9mCfYWidtdzE7-13" edge="1">
          <mxGeometry width="50" height="50" relative="1" as="geometry">
            <mxPoint x="850" y="370" as="sourcePoint" />
            <mxPoint x="710" y="365" as="targetPoint" />
            <Array as="points">
              <mxPoint x="850" y="365" />
            </Array>
          </mxGeometry>
        </mxCell>
        <mxCell id="mO7SX5a-RgstDX4VnLtk-1" value="&lt;meta charset=&quot;utf-8&quot;&gt;&lt;span style=&quot;color: rgb(0, 0, 0); font-family: &amp;quot;lucida grande&amp;quot;, verdana; font-size: 14px; font-style: normal; font-weight: 400; letter-spacing: normal; text-indent: 0px; text-transform: none; word-spacing: 0px; background-color: rgb(255, 255, 255); display: inline; float: none;&quot;&gt;180292&lt;/span&gt;" style="text;whiteSpace=wrap;html=1;" vertex="1" parent="1">
          <mxGeometry x="10" y="60" width="80" height="30" as="geometry" />
        </mxCell>
      </root>
    </mxGraphModel>
  </diagram>
  <diagram id="OO-jqyWFuyv-gqk_lCy3" name="第 2 页">
    <mxGraphModel dx="1426" dy="716" grid="1" gridSize="10" guides="1" tooltips="1" connect="1" arrows="1" fold="1" page="1" pageScale="1" pageWidth="1654" pageHeight="1169" math="0" shadow="0">
      <root>
        <mxCell id="I9quofNEpU8VXG3aymKs-0" />
        <mxCell id="I9quofNEpU8VXG3aymKs-1" parent="I9quofNEpU8VXG3aymKs-0" />
        <mxCell id="I9quofNEpU8VXG3aymKs-272" value="" style="shape=table;html=1;whiteSpace=wrap;startSize=0;container=1;collapsible=0;childLayout=tableLayout;fillColor=none;" parent="I9quofNEpU8VXG3aymKs-1" vertex="1">
          <mxGeometry x="140" y="132" width="940" height="608" as="geometry" />
        </mxCell>
        <mxCell id="I9quofNEpU8VXG3aymKs-273" value="" style="shape=partialRectangle;html=1;whiteSpace=wrap;collapsible=0;dropTarget=0;pointerEvents=0;fillColor=none;top=0;left=0;bottom=0;right=0;points=[[0,0.5],[1,0.5]];portConstraint=eastwest;" parent="I9quofNEpU8VXG3aymKs-272" vertex="1">
          <mxGeometry width="940" height="28" as="geometry" />
        </mxCell>
        <mxCell id="I9quofNEpU8VXG3aymKs-274" value="" style="shape=partialRectangle;html=1;whiteSpace=wrap;connectable=0;overflow=hidden;fillColor=none;top=0;left=0;bottom=0;right=0;" parent="I9quofNEpU8VXG3aymKs-273" vertex="1">
          <mxGeometry width="20" height="28" as="geometry" />
        </mxCell>
        <mxCell id="I9quofNEpU8VXG3aymKs-275" value="顺序结构" style="shape=partialRectangle;html=1;whiteSpace=wrap;connectable=0;overflow=hidden;fillColor=none;top=0;left=0;bottom=0;right=0;" parent="I9quofNEpU8VXG3aymKs-273" vertex="1">
          <mxGeometry x="20" width="160" height="28" as="geometry" />
        </mxCell>
        <mxCell id="I9quofNEpU8VXG3aymKs-276" value="分支结构" style="shape=partialRectangle;html=1;whiteSpace=wrap;connectable=0;overflow=hidden;fillColor=none;top=0;left=0;bottom=0;right=0;" parent="I9quofNEpU8VXG3aymKs-273" vertex="1">
          <mxGeometry x="180" width="320" height="28" as="geometry" />
        </mxCell>
        <mxCell id="I9quofNEpU8VXG3aymKs-277" value="当型循环" style="shape=partialRectangle;html=1;whiteSpace=wrap;connectable=0;overflow=hidden;fillColor=none;top=0;left=0;bottom=0;right=0;" parent="I9quofNEpU8VXG3aymKs-273" vertex="1">
          <mxGeometry x="500" width="240" height="28" as="geometry" />
        </mxCell>
        <mxCell id="I9quofNEpU8VXG3aymKs-278" value="直到型循环" style="shape=partialRectangle;html=1;whiteSpace=wrap;connectable=0;overflow=hidden;fillColor=none;top=0;left=0;bottom=0;right=0;" parent="I9quofNEpU8VXG3aymKs-273" vertex="1">
          <mxGeometry x="740" width="200" height="28" as="geometry" />
        </mxCell>
        <mxCell id="I9quofNEpU8VXG3aymKs-279" value="" style="shape=partialRectangle;html=1;whiteSpace=wrap;collapsible=0;dropTarget=0;pointerEvents=0;fillColor=none;top=0;left=0;bottom=0;right=0;points=[[0,0.5],[1,0.5]];portConstraint=eastwest;" parent="I9quofNEpU8VXG3aymKs-272" vertex="1">
          <mxGeometry y="28" width="940" height="250" as="geometry" />
        </mxCell>
        <mxCell id="I9quofNEpU8VXG3aymKs-280" value="控制流图" style="shape=partialRectangle;html=1;whiteSpace=wrap;connectable=0;overflow=hidden;fillColor=none;top=0;left=0;bottom=0;right=0;" parent="I9quofNEpU8VXG3aymKs-279" vertex="1">
          <mxGeometry width="20" height="250" as="geometry" />
        </mxCell>
        <mxCell id="I9quofNEpU8VXG3aymKs-281" value="" style="shape=partialRectangle;html=1;whiteSpace=wrap;connectable=0;overflow=hidden;fillColor=none;top=0;left=0;bottom=0;right=0;" parent="I9quofNEpU8VXG3aymKs-279" vertex="1">
          <mxGeometry x="20" width="160" height="250" as="geometry" />
        </mxCell>
        <mxCell id="I9quofNEpU8VXG3aymKs-282" value="" style="shape=partialRectangle;html=1;whiteSpace=wrap;connectable=0;overflow=hidden;fillColor=none;top=0;left=0;bottom=0;right=0;" parent="I9quofNEpU8VXG3aymKs-279" vertex="1">
          <mxGeometry x="180" width="320" height="250" as="geometry" />
        </mxCell>
        <mxCell id="I9quofNEpU8VXG3aymKs-283" value="" style="shape=partialRectangle;html=1;whiteSpace=wrap;connectable=0;overflow=hidden;fillColor=none;top=0;left=0;bottom=0;right=0;" parent="I9quofNEpU8VXG3aymKs-279" vertex="1">
          <mxGeometry x="500" width="240" height="250" as="geometry" />
        </mxCell>
        <mxCell id="I9quofNEpU8VXG3aymKs-284" value="" style="shape=partialRectangle;html=1;whiteSpace=wrap;connectable=0;overflow=hidden;fillColor=none;top=0;left=0;bottom=0;right=0;" parent="I9quofNEpU8VXG3aymKs-279" vertex="1">
          <mxGeometry x="740" width="200" height="250" as="geometry" />
        </mxCell>
        <mxCell id="I9quofNEpU8VXG3aymKs-285" value="" style="shape=partialRectangle;html=1;whiteSpace=wrap;collapsible=0;dropTarget=0;pointerEvents=0;fillColor=none;top=0;left=0;bottom=0;right=0;points=[[0,0.5],[1,0.5]];portConstraint=eastwest;" parent="I9quofNEpU8VXG3aymKs-272" vertex="1">
          <mxGeometry y="278" width="940" height="330" as="geometry" />
        </mxCell>
        <mxCell id="I9quofNEpU8VXG3aymKs-286" value="流程图" style="shape=partialRectangle;html=1;whiteSpace=wrap;connectable=0;overflow=hidden;fillColor=none;top=0;left=0;bottom=0;right=0;" parent="I9quofNEpU8VXG3aymKs-285" vertex="1">
          <mxGeometry width="20" height="330" as="geometry" />
        </mxCell>
        <mxCell id="I9quofNEpU8VXG3aymKs-287" value="" style="shape=partialRectangle;html=1;whiteSpace=wrap;connectable=0;overflow=hidden;fillColor=none;top=0;left=0;bottom=0;right=0;" parent="I9quofNEpU8VXG3aymKs-285" vertex="1">
          <mxGeometry x="20" width="160" height="330" as="geometry" />
        </mxCell>
        <mxCell id="I9quofNEpU8VXG3aymKs-288" value="" style="shape=partialRectangle;html=1;whiteSpace=wrap;connectable=0;overflow=hidden;fillColor=none;top=0;left=0;bottom=0;right=0;" parent="I9quofNEpU8VXG3aymKs-285" vertex="1">
          <mxGeometry x="180" width="320" height="330" as="geometry" />
        </mxCell>
        <mxCell id="I9quofNEpU8VXG3aymKs-289" value="" style="shape=partialRectangle;html=1;whiteSpace=wrap;connectable=0;overflow=hidden;fillColor=none;top=0;left=0;bottom=0;right=0;" parent="I9quofNEpU8VXG3aymKs-285" vertex="1">
          <mxGeometry x="500" width="240" height="330" as="geometry" />
        </mxCell>
        <mxCell id="I9quofNEpU8VXG3aymKs-290" value="" style="shape=partialRectangle;html=1;whiteSpace=wrap;connectable=0;overflow=hidden;fillColor=none;top=0;left=0;bottom=0;right=0;" parent="I9quofNEpU8VXG3aymKs-285" vertex="1">
          <mxGeometry x="740" width="200" height="330" as="geometry" />
        </mxCell>
        <mxCell id="I9quofNEpU8VXG3aymKs-147" value="" style="ellipse;whiteSpace=wrap;html=1;aspect=fixed;strokeWidth=2;" parent="I9quofNEpU8VXG3aymKs-1" vertex="1">
          <mxGeometry x="225" y="220.5" width="30" height="30" as="geometry" />
        </mxCell>
        <mxCell id="I9quofNEpU8VXG3aymKs-148" value="" style="ellipse;whiteSpace=wrap;html=1;aspect=fixed;strokeWidth=2;" parent="I9quofNEpU8VXG3aymKs-1" vertex="1">
          <mxGeometry x="225" y="270.5" width="30" height="30" as="geometry" />
        </mxCell>
        <mxCell id="I9quofNEpU8VXG3aymKs-151" value="" style="endArrow=classic;html=1;exitX=0.5;exitY=1;exitDx=0;exitDy=0;entryX=0.5;entryY=0;entryDx=0;entryDy=0;" parent="I9quofNEpU8VXG3aymKs-1" source="I9quofNEpU8VXG3aymKs-148" edge="1">
          <mxGeometry width="50" height="50" relative="1" as="geometry">
            <mxPoint x="475" y="240.5" as="sourcePoint" />
            <mxPoint x="240" y="320.5" as="targetPoint" />
          </mxGeometry>
        </mxCell>
        <mxCell id="I9quofNEpU8VXG3aymKs-152" value="" style="endArrow=classic;html=1;exitX=0.5;exitY=1;exitDx=0;exitDy=0;" parent="I9quofNEpU8VXG3aymKs-1" source="I9quofNEpU8VXG3aymKs-147" target="I9quofNEpU8VXG3aymKs-148" edge="1">
          <mxGeometry width="50" height="50" relative="1" as="geometry">
            <mxPoint x="266" y="240.5" as="sourcePoint" />
            <mxPoint x="335" y="110.5" as="targetPoint" />
          </mxGeometry>
        </mxCell>
        <mxCell id="I9quofNEpU8VXG3aymKs-153" value="" style="rounded=0;whiteSpace=wrap;html=1;strokeWidth=2;" parent="I9quofNEpU8VXG3aymKs-1" vertex="1">
          <mxGeometry x="200" y="472" width="80" height="30" as="geometry" />
        </mxCell>
        <mxCell id="I9quofNEpU8VXG3aymKs-154" value="" style="rounded=0;whiteSpace=wrap;html=1;strokeWidth=2;" parent="I9quofNEpU8VXG3aymKs-1" vertex="1">
          <mxGeometry x="200" y="522" width="80" height="30" as="geometry" />
        </mxCell>
        <mxCell id="I9quofNEpU8VXG3aymKs-156" value="" style="endArrow=classic;html=1;exitX=0.5;exitY=1;exitDx=0;exitDy=0;entryX=0.5;entryY=0;entryDx=0;entryDy=0;" parent="I9quofNEpU8VXG3aymKs-1" source="I9quofNEpU8VXG3aymKs-153" target="I9quofNEpU8VXG3aymKs-154" edge="1">
          <mxGeometry width="50" height="50" relative="1" as="geometry">
            <mxPoint x="260" y="562" as="sourcePoint" />
            <mxPoint x="241" y="517" as="targetPoint" />
          </mxGeometry>
        </mxCell>
        <mxCell id="I9quofNEpU8VXG3aymKs-157" value="" style="endArrow=classic;html=1;exitX=0.5;exitY=1;exitDx=0;exitDy=0;" parent="I9quofNEpU8VXG3aymKs-1" source="I9quofNEpU8VXG3aymKs-154" edge="1">
          <mxGeometry width="50" height="50" relative="1" as="geometry">
            <mxPoint x="259.5" y="592" as="sourcePoint" />
            <mxPoint x="240" y="572" as="targetPoint" />
          </mxGeometry>
        </mxCell>
        <mxCell id="I9quofNEpU8VXG3aymKs-160" value="" style="ellipse;whiteSpace=wrap;html=1;aspect=fixed;strokeWidth=2;" parent="I9quofNEpU8VXG3aymKs-1" vertex="1">
          <mxGeometry x="465" y="220" width="30" height="30" as="geometry" />
        </mxCell>
        <mxCell id="I9quofNEpU8VXG3aymKs-161" value="" style="ellipse;whiteSpace=wrap;html=1;aspect=fixed;strokeWidth=2;" parent="I9quofNEpU8VXG3aymKs-1" vertex="1">
          <mxGeometry x="384" y="256" width="30" height="30" as="geometry" />
        </mxCell>
        <mxCell id="I9quofNEpU8VXG3aymKs-162" value="" style="ellipse;whiteSpace=wrap;html=1;aspect=fixed;strokeWidth=2;" parent="I9quofNEpU8VXG3aymKs-1" vertex="1">
          <mxGeometry x="545" y="255" width="30" height="30" as="geometry" />
        </mxCell>
        <mxCell id="I9quofNEpU8VXG3aymKs-163" value="" style="ellipse;whiteSpace=wrap;html=1;aspect=fixed;strokeWidth=2;" parent="I9quofNEpU8VXG3aymKs-1" vertex="1">
          <mxGeometry x="465" y="290" width="30" height="30" as="geometry" />
        </mxCell>
        <mxCell id="I9quofNEpU8VXG3aymKs-164" value="" style="rhombus;whiteSpace=wrap;html=1;strokeWidth=2;" parent="I9quofNEpU8VXG3aymKs-1" vertex="1">
          <mxGeometry x="440" y="519.5" width="80" height="30" as="geometry" />
        </mxCell>
        <mxCell id="I9quofNEpU8VXG3aymKs-165" value="" style="rounded=0;whiteSpace=wrap;html=1;strokeWidth=2;" parent="I9quofNEpU8VXG3aymKs-1" vertex="1">
          <mxGeometry x="360" y="560.5" width="80" height="30" as="geometry" />
        </mxCell>
        <mxCell id="I9quofNEpU8VXG3aymKs-166" value="" style="rounded=0;whiteSpace=wrap;html=1;strokeWidth=2;" parent="I9quofNEpU8VXG3aymKs-1" vertex="1">
          <mxGeometry x="520" y="560.5" width="80" height="30" as="geometry" />
        </mxCell>
        <mxCell id="I9quofNEpU8VXG3aymKs-168" value="" style="endArrow=classic;html=1;" parent="I9quofNEpU8VXG3aymKs-1" edge="1">
          <mxGeometry width="50" height="50" relative="1" as="geometry">
            <mxPoint x="480" y="499.5" as="sourcePoint" />
            <mxPoint x="480" y="519.5" as="targetPoint" />
          </mxGeometry>
        </mxCell>
        <mxCell id="I9quofNEpU8VXG3aymKs-169" value="" style="endArrow=classic;html=1;entryX=0.5;entryY=0;entryDx=0;entryDy=0;exitX=0;exitY=0.5;exitDx=0;exitDy=0;" parent="I9quofNEpU8VXG3aymKs-1" source="I9quofNEpU8VXG3aymKs-164" target="I9quofNEpU8VXG3aymKs-165" edge="1">
          <mxGeometry width="50" height="50" relative="1" as="geometry">
            <mxPoint x="420" y="429.5" as="sourcePoint" />
            <mxPoint x="420" y="469.5" as="targetPoint" />
            <Array as="points">
              <mxPoint x="400" y="534.5" />
            </Array>
          </mxGeometry>
        </mxCell>
        <mxCell id="I9quofNEpU8VXG3aymKs-170" value="" style="endArrow=classic;html=1;entryX=0.5;entryY=0;entryDx=0;entryDy=0;exitX=1;exitY=0.5;exitDx=0;exitDy=0;" parent="I9quofNEpU8VXG3aymKs-1" source="I9quofNEpU8VXG3aymKs-164" target="I9quofNEpU8VXG3aymKs-166" edge="1">
          <mxGeometry width="50" height="50" relative="1" as="geometry">
            <mxPoint x="450" y="544.5" as="sourcePoint" />
            <mxPoint x="410" y="569.5" as="targetPoint" />
            <Array as="points">
              <mxPoint x="560" y="534.5" />
            </Array>
          </mxGeometry>
        </mxCell>
        <mxCell id="I9quofNEpU8VXG3aymKs-172" value="" style="edgeStyle=elbowEdgeStyle;elbow=vertical;endArrow=classic;html=1;exitX=0.5;exitY=1;exitDx=0;exitDy=0;" parent="I9quofNEpU8VXG3aymKs-1" source="I9quofNEpU8VXG3aymKs-165" edge="1">
          <mxGeometry width="50" height="50" relative="1" as="geometry">
            <mxPoint x="450" y="419.5" as="sourcePoint" />
            <mxPoint x="480" y="631.5" as="targetPoint" />
          </mxGeometry>
        </mxCell>
        <mxCell id="I9quofNEpU8VXG3aymKs-173" value="" style="edgeStyle=elbowEdgeStyle;elbow=vertical;endArrow=classic;html=1;exitX=0.5;exitY=1;exitDx=0;exitDy=0;" parent="I9quofNEpU8VXG3aymKs-1" source="I9quofNEpU8VXG3aymKs-166" edge="1">
          <mxGeometry width="50" height="50" relative="1" as="geometry">
            <mxPoint x="410" y="599.5" as="sourcePoint" />
            <mxPoint x="480" y="631.5" as="targetPoint" />
          </mxGeometry>
        </mxCell>
        <mxCell id="I9quofNEpU8VXG3aymKs-174" value="" style="endArrow=classic;html=1;" parent="I9quofNEpU8VXG3aymKs-1" edge="1">
          <mxGeometry width="50" height="50" relative="1" as="geometry">
            <mxPoint x="480.5" y="200" as="sourcePoint" />
            <mxPoint x="480.5" y="220" as="targetPoint" />
          </mxGeometry>
        </mxCell>
        <mxCell id="I9quofNEpU8VXG3aymKs-175" value="" style="endArrow=classic;html=1;" parent="I9quofNEpU8VXG3aymKs-1" edge="1">
          <mxGeometry width="50" height="50" relative="1" as="geometry">
            <mxPoint x="479.5" y="320" as="sourcePoint" />
            <mxPoint x="479.5" y="340" as="targetPoint" />
          </mxGeometry>
        </mxCell>
        <mxCell id="I9quofNEpU8VXG3aymKs-176" value="" style="endArrow=classic;html=1;exitX=0;exitY=0.5;exitDx=0;exitDy=0;" parent="I9quofNEpU8VXG3aymKs-1" target="I9quofNEpU8VXG3aymKs-161" edge="1">
          <mxGeometry width="50" height="50" relative="1" as="geometry">
            <mxPoint x="464" y="236" as="sourcePoint" />
            <mxPoint x="430" y="71" as="targetPoint" />
          </mxGeometry>
        </mxCell>
        <mxCell id="I9quofNEpU8VXG3aymKs-178" value="" style="endArrow=classic;html=1;exitX=1;exitY=0.5;exitDx=0;exitDy=0;entryX=0;entryY=0;entryDx=0;entryDy=0;" parent="I9quofNEpU8VXG3aymKs-1" source="I9quofNEpU8VXG3aymKs-160" target="I9quofNEpU8VXG3aymKs-162" edge="1">
          <mxGeometry width="50" height="50" relative="1" as="geometry">
            <mxPoint x="611" y="190" as="sourcePoint" />
            <mxPoint x="661" y="140" as="targetPoint" />
          </mxGeometry>
        </mxCell>
        <mxCell id="I9quofNEpU8VXG3aymKs-179" value="" style="endArrow=classic;html=1;exitX=1;exitY=1;exitDx=0;exitDy=0;entryX=0;entryY=0.5;entryDx=0;entryDy=0;" parent="I9quofNEpU8VXG3aymKs-1" source="I9quofNEpU8VXG3aymKs-161" edge="1">
          <mxGeometry width="50" height="50" relative="1" as="geometry">
            <mxPoint x="340" y="151" as="sourcePoint" />
            <mxPoint x="464" y="306" as="targetPoint" />
          </mxGeometry>
        </mxCell>
        <mxCell id="I9quofNEpU8VXG3aymKs-180" value="" style="rhombus;whiteSpace=wrap;html=1;strokeWidth=2;" parent="I9quofNEpU8VXG3aymKs-1" vertex="1">
          <mxGeometry x="720" y="470" width="80" height="30" as="geometry" />
        </mxCell>
        <mxCell id="I9quofNEpU8VXG3aymKs-181" value="" style="rounded=0;whiteSpace=wrap;html=1;strokeWidth=2;" parent="I9quofNEpU8VXG3aymKs-1" vertex="1">
          <mxGeometry x="720" y="520" width="80" height="30" as="geometry" />
        </mxCell>
        <mxCell id="I9quofNEpU8VXG3aymKs-183" value="" style="endArrow=classic;html=1;" parent="I9quofNEpU8VXG3aymKs-1" target="I9quofNEpU8VXG3aymKs-180" edge="1">
          <mxGeometry width="50" height="50" relative="1" as="geometry">
            <mxPoint x="760" y="450" as="sourcePoint" />
            <mxPoint x="760" y="470" as="targetPoint" />
          </mxGeometry>
        </mxCell>
        <mxCell id="I9quofNEpU8VXG3aymKs-193" value="" style="endArrow=classic;html=1;exitX=0;exitY=1;exitDx=0;exitDy=0;" parent="I9quofNEpU8VXG3aymKs-1" source="I9quofNEpU8VXG3aymKs-162" edge="1">
          <mxGeometry width="50" height="50" relative="1" as="geometry">
            <mxPoint x="651" y="150" as="sourcePoint" />
            <mxPoint x="495" y="305" as="targetPoint" />
          </mxGeometry>
        </mxCell>
        <mxCell id="I9quofNEpU8VXG3aymKs-195" value="" style="endArrow=classic;html=1;" parent="I9quofNEpU8VXG3aymKs-1" edge="1">
          <mxGeometry width="50" height="50" relative="1" as="geometry">
            <mxPoint x="759.5" y="500" as="sourcePoint" />
            <mxPoint x="759.5" y="520" as="targetPoint" />
          </mxGeometry>
        </mxCell>
        <mxCell id="I9quofNEpU8VXG3aymKs-205" value="" style="ellipse;whiteSpace=wrap;html=1;aspect=fixed;strokeWidth=2;" parent="I9quofNEpU8VXG3aymKs-1" vertex="1">
          <mxGeometry x="745" y="220" width="30" height="30" as="geometry" />
        </mxCell>
        <mxCell id="I9quofNEpU8VXG3aymKs-206" value="" style="ellipse;whiteSpace=wrap;html=1;aspect=fixed;strokeWidth=2;" parent="I9quofNEpU8VXG3aymKs-1" vertex="1">
          <mxGeometry x="745" y="270" width="30" height="30" as="geometry" />
        </mxCell>
        <mxCell id="I9quofNEpU8VXG3aymKs-207" value="" style="ellipse;whiteSpace=wrap;html=1;aspect=fixed;strokeWidth=2;" parent="I9quofNEpU8VXG3aymKs-1" vertex="1">
          <mxGeometry x="745" y="320" width="30" height="30" as="geometry" />
        </mxCell>
        <mxCell id="I9quofNEpU8VXG3aymKs-212" value="" style="edgeStyle=elbowEdgeStyle;elbow=horizontal;endArrow=classic;html=1;exitX=0;exitY=0.5;exitDx=0;exitDy=0;entryX=0;entryY=0.5;entryDx=0;entryDy=0;" parent="I9quofNEpU8VXG3aymKs-1" source="I9quofNEpU8VXG3aymKs-205" target="I9quofNEpU8VXG3aymKs-207" edge="1">
          <mxGeometry width="50" height="50" relative="1" as="geometry">
            <mxPoint x="605" y="290" as="sourcePoint" />
            <mxPoint x="655" y="240" as="targetPoint" />
            <Array as="points">
              <mxPoint x="705" y="285" />
            </Array>
          </mxGeometry>
        </mxCell>
        <mxCell id="I9quofNEpU8VXG3aymKs-213" value="" style="endArrow=classic;html=1;exitX=0.5;exitY=1;exitDx=0;exitDy=0;entryX=0.5;entryY=0;entryDx=0;entryDy=0;" parent="I9quofNEpU8VXG3aymKs-1" edge="1">
          <mxGeometry width="50" height="50" relative="1" as="geometry">
            <mxPoint x="759.5" y="250" as="sourcePoint" />
            <mxPoint x="759.5" y="270" as="targetPoint" />
          </mxGeometry>
        </mxCell>
        <mxCell id="I9quofNEpU8VXG3aymKs-214" value="" style="edgeStyle=elbowEdgeStyle;elbow=horizontal;endArrow=classic;html=1;exitX=1;exitY=0.5;exitDx=0;exitDy=0;" parent="I9quofNEpU8VXG3aymKs-1" source="I9quofNEpU8VXG3aymKs-206" edge="1">
          <mxGeometry width="50" height="50" relative="1" as="geometry">
            <mxPoint x="855" y="180" as="sourcePoint" />
            <mxPoint x="775" y="235" as="targetPoint" />
            <Array as="points">
              <mxPoint x="815" y="270" />
            </Array>
          </mxGeometry>
        </mxCell>
        <mxCell id="I9quofNEpU8VXG3aymKs-215" value="" style="ellipse;whiteSpace=wrap;html=1;aspect=fixed;strokeWidth=2;" parent="I9quofNEpU8VXG3aymKs-1" vertex="1">
          <mxGeometry x="945" y="220.5" width="30" height="30" as="geometry" />
        </mxCell>
        <mxCell id="I9quofNEpU8VXG3aymKs-216" value="" style="ellipse;whiteSpace=wrap;html=1;aspect=fixed;strokeWidth=2;" parent="I9quofNEpU8VXG3aymKs-1" vertex="1">
          <mxGeometry x="945" y="270.5" width="30" height="30" as="geometry" />
        </mxCell>
        <mxCell id="I9quofNEpU8VXG3aymKs-217" value="" style="ellipse;whiteSpace=wrap;html=1;aspect=fixed;strokeWidth=2;" parent="I9quofNEpU8VXG3aymKs-1" vertex="1">
          <mxGeometry x="945" y="320.5" width="30" height="30" as="geometry" />
        </mxCell>
        <mxCell id="I9quofNEpU8VXG3aymKs-219" value="" style="endArrow=classic;html=1;exitX=0.5;exitY=1;exitDx=0;exitDy=0;entryX=0.5;entryY=0;entryDx=0;entryDy=0;" parent="I9quofNEpU8VXG3aymKs-1" edge="1">
          <mxGeometry width="50" height="50" relative="1" as="geometry">
            <mxPoint x="959.5" y="250.5" as="sourcePoint" />
            <mxPoint x="959.5" y="270.5" as="targetPoint" />
          </mxGeometry>
        </mxCell>
        <mxCell id="I9quofNEpU8VXG3aymKs-220" value="" style="edgeStyle=elbowEdgeStyle;elbow=horizontal;endArrow=classic;html=1;exitX=1;exitY=0.5;exitDx=0;exitDy=0;" parent="I9quofNEpU8VXG3aymKs-1" source="I9quofNEpU8VXG3aymKs-216" edge="1">
          <mxGeometry width="50" height="50" relative="1" as="geometry">
            <mxPoint x="1055" y="180.5" as="sourcePoint" />
            <mxPoint x="975" y="235.5" as="targetPoint" />
            <Array as="points">
              <mxPoint x="1015" y="270.5" />
            </Array>
          </mxGeometry>
        </mxCell>
        <mxCell id="I9quofNEpU8VXG3aymKs-221" value="" style="endArrow=classic;html=1;exitX=0.5;exitY=1;exitDx=0;exitDy=0;entryX=0.5;entryY=0;entryDx=0;entryDy=0;" parent="I9quofNEpU8VXG3aymKs-1" edge="1">
          <mxGeometry width="50" height="50" relative="1" as="geometry">
            <mxPoint x="959.5" y="300.5" as="sourcePoint" />
            <mxPoint x="959.5" y="320.5" as="targetPoint" />
          </mxGeometry>
        </mxCell>
        <mxCell id="I9quofNEpU8VXG3aymKs-224" value="" style="endArrow=classic;html=1;" parent="I9quofNEpU8VXG3aymKs-1" edge="1">
          <mxGeometry width="50" height="50" relative="1" as="geometry">
            <mxPoint x="960" y="451.5" as="sourcePoint" />
            <mxPoint x="960" y="491.5" as="targetPoint" />
          </mxGeometry>
        </mxCell>
        <mxCell id="I9quofNEpU8VXG3aymKs-225" value="" style="endArrow=classic;html=1;" parent="I9quofNEpU8VXG3aymKs-1" edge="1">
          <mxGeometry width="50" height="50" relative="1" as="geometry">
            <mxPoint x="959.5" y="521.5" as="sourcePoint" />
            <mxPoint x="959.5" y="541.5" as="targetPoint" />
          </mxGeometry>
        </mxCell>
        <mxCell id="I9quofNEpU8VXG3aymKs-228" value="" style="rounded=0;whiteSpace=wrap;html=1;strokeWidth=2;" parent="I9quofNEpU8VXG3aymKs-1" vertex="1">
          <mxGeometry x="920" y="491.5" width="80" height="30" as="geometry" />
        </mxCell>
        <mxCell id="I9quofNEpU8VXG3aymKs-229" value="" style="rhombus;whiteSpace=wrap;html=1;strokeWidth=2;" parent="I9quofNEpU8VXG3aymKs-1" vertex="1">
          <mxGeometry x="920" y="592" width="80" height="30" as="geometry" />
        </mxCell>
        <mxCell id="I9quofNEpU8VXG3aymKs-230" value="" style="endArrow=classic;html=1;" parent="I9quofNEpU8VXG3aymKs-1" edge="1">
          <mxGeometry width="50" height="50" relative="1" as="geometry">
            <mxPoint x="959.5" y="622" as="sourcePoint" />
            <mxPoint x="959.5" y="642" as="targetPoint" />
          </mxGeometry>
        </mxCell>
        <mxCell id="AuQEcXMW1UDqbLSpXY6g-0" value="" style="endArrow=classic;html=1;exitX=0.5;exitY=1;exitDx=0;exitDy=0;entryX=0.5;entryY=0;entryDx=0;entryDy=0;" parent="I9quofNEpU8VXG3aymKs-1" edge="1">
          <mxGeometry width="50" height="50" relative="1" as="geometry">
            <mxPoint x="239.5" y="200.5" as="sourcePoint" />
            <mxPoint x="239.5" y="220.5" as="targetPoint" />
          </mxGeometry>
        </mxCell>
        <mxCell id="AuQEcXMW1UDqbLSpXY6g-1" value="" style="endArrow=classic;html=1;exitX=0.5;exitY=1;exitDx=0;exitDy=0;" parent="I9quofNEpU8VXG3aymKs-1" edge="1">
          <mxGeometry width="50" height="50" relative="1" as="geometry">
            <mxPoint x="239.5" y="452" as="sourcePoint" />
            <mxPoint x="239.5" y="472" as="targetPoint" />
          </mxGeometry>
        </mxCell>
        <mxCell id="AuQEcXMW1UDqbLSpXY6g-2" value="" style="endArrow=classic;html=1;" parent="I9quofNEpU8VXG3aymKs-1" edge="1">
          <mxGeometry width="50" height="50" relative="1" as="geometry">
            <mxPoint x="480" y="451.5" as="sourcePoint" />
            <mxPoint x="480" y="471.5" as="targetPoint" />
          </mxGeometry>
        </mxCell>
        <mxCell id="AuQEcXMW1UDqbLSpXY6g-3" value="" style="rounded=0;whiteSpace=wrap;html=1;strokeWidth=2;" parent="I9quofNEpU8VXG3aymKs-1" vertex="1">
          <mxGeometry x="439.5" y="471.5" width="80" height="30" as="geometry" />
        </mxCell>
        <mxCell id="AuQEcXMW1UDqbLSpXY6g-4" value="" style="rounded=0;whiteSpace=wrap;html=1;strokeWidth=2;" parent="I9quofNEpU8VXG3aymKs-1" vertex="1">
          <mxGeometry x="439.5" y="631.5" width="80" height="30" as="geometry" />
        </mxCell>
        <mxCell id="AuQEcXMW1UDqbLSpXY6g-5" value="" style="endArrow=classic;html=1;" parent="I9quofNEpU8VXG3aymKs-1" edge="1">
          <mxGeometry width="50" height="50" relative="1" as="geometry">
            <mxPoint x="479" y="661.5" as="sourcePoint" />
            <mxPoint x="479" y="681.5" as="targetPoint" />
          </mxGeometry>
        </mxCell>
        <mxCell id="AuQEcXMW1UDqbLSpXY6g-6" value="" style="endArrow=classic;html=1;" parent="I9quofNEpU8VXG3aymKs-1" edge="1">
          <mxGeometry width="50" height="50" relative="1" as="geometry">
            <mxPoint x="759.5" y="200" as="sourcePoint" />
            <mxPoint x="759.5" y="220" as="targetPoint" />
          </mxGeometry>
        </mxCell>
        <mxCell id="AuQEcXMW1UDqbLSpXY6g-7" value="" style="endArrow=classic;html=1;" parent="I9quofNEpU8VXG3aymKs-1" edge="1">
          <mxGeometry width="50" height="50" relative="1" as="geometry">
            <mxPoint x="759.5" y="350" as="sourcePoint" />
            <mxPoint x="759.5" y="370" as="targetPoint" />
          </mxGeometry>
        </mxCell>
        <mxCell id="AuQEcXMW1UDqbLSpXY6g-8" value="" style="ellipse;whiteSpace=wrap;html=1;aspect=fixed;strokeWidth=2;" parent="I9quofNEpU8VXG3aymKs-1" vertex="1">
          <mxGeometry x="225" y="320.5" width="30" height="30" as="geometry" />
        </mxCell>
        <mxCell id="AuQEcXMW1UDqbLSpXY6g-9" value="" style="endArrow=classic;html=1;exitX=0.5;exitY=1;exitDx=0;exitDy=0;entryX=0.5;entryY=0;entryDx=0;entryDy=0;" parent="I9quofNEpU8VXG3aymKs-1" edge="1">
          <mxGeometry width="50" height="50" relative="1" as="geometry">
            <mxPoint x="239.5" y="350.5" as="sourcePoint" />
            <mxPoint x="239.5" y="370.5" as="targetPoint" />
          </mxGeometry>
        </mxCell>
        <mxCell id="AuQEcXMW1UDqbLSpXY6g-10" value="" style="endArrow=classic;html=1;" parent="I9quofNEpU8VXG3aymKs-1" edge="1">
          <mxGeometry width="50" height="50" relative="1" as="geometry">
            <mxPoint x="959.5" y="200.5" as="sourcePoint" />
            <mxPoint x="959.5" y="220.5" as="targetPoint" />
          </mxGeometry>
        </mxCell>
        <mxCell id="AuQEcXMW1UDqbLSpXY6g-11" value="" style="endArrow=classic;html=1;" parent="I9quofNEpU8VXG3aymKs-1" edge="1">
          <mxGeometry width="50" height="50" relative="1" as="geometry">
            <mxPoint x="959.5" y="349.5" as="sourcePoint" />
            <mxPoint x="959.5" y="369.5" as="targetPoint" />
          </mxGeometry>
        </mxCell>
        <mxCell id="AuQEcXMW1UDqbLSpXY6g-12" value="" style="rounded=0;whiteSpace=wrap;html=1;strokeWidth=2;" parent="I9quofNEpU8VXG3aymKs-1" vertex="1">
          <mxGeometry x="200" y="572" width="80" height="30" as="geometry" />
        </mxCell>
        <mxCell id="AuQEcXMW1UDqbLSpXY6g-13" value="" style="endArrow=classic;html=1;exitX=0.5;exitY=1;exitDx=0;exitDy=0;" parent="I9quofNEpU8VXG3aymKs-1" source="AuQEcXMW1UDqbLSpXY6g-12" edge="1">
          <mxGeometry width="50" height="50" relative="1" as="geometry">
            <mxPoint x="259.5" y="642" as="sourcePoint" />
            <mxPoint x="240" y="622" as="targetPoint" />
          </mxGeometry>
        </mxCell>
        <mxCell id="AuQEcXMW1UDqbLSpXY6g-14" value="" style="rounded=0;whiteSpace=wrap;html=1;strokeWidth=2;" parent="I9quofNEpU8VXG3aymKs-1" vertex="1">
          <mxGeometry x="720" y="570" width="80" height="30" as="geometry" />
        </mxCell>
        <mxCell id="AuQEcXMW1UDqbLSpXY6g-16" value="" style="endArrow=classic;html=1;" parent="I9quofNEpU8VXG3aymKs-1" edge="1">
          <mxGeometry width="50" height="50" relative="1" as="geometry">
            <mxPoint x="759.5" y="550" as="sourcePoint" />
            <mxPoint x="759.5" y="570" as="targetPoint" />
          </mxGeometry>
        </mxCell>
        <mxCell id="AuQEcXMW1UDqbLSpXY6g-18" value="" style="endArrow=none;html=1;" parent="I9quofNEpU8VXG3aymKs-1" target="AuQEcXMW1UDqbLSpXY6g-14" edge="1">
          <mxGeometry width="50" height="50" relative="1" as="geometry">
            <mxPoint x="760" y="620.5" as="sourcePoint" />
            <mxPoint x="800" y="620" as="targetPoint" />
          </mxGeometry>
        </mxCell>
        <mxCell id="AuQEcXMW1UDqbLSpXY6g-20" value="" style="edgeStyle=elbowEdgeStyle;elbow=horizontal;endArrow=classic;html=1;entryX=1;entryY=0.5;entryDx=0;entryDy=0;" parent="I9quofNEpU8VXG3aymKs-1" target="I9quofNEpU8VXG3aymKs-180" edge="1">
          <mxGeometry width="50" height="50" relative="1" as="geometry">
            <mxPoint x="760" y="620.5" as="sourcePoint" />
            <mxPoint x="761" y="570" as="targetPoint" />
            <Array as="points">
              <mxPoint x="840" y="551" />
            </Array>
          </mxGeometry>
        </mxCell>
        <mxCell id="AuQEcXMW1UDqbLSpXY6g-21" value="" style="rounded=0;whiteSpace=wrap;html=1;strokeWidth=2;" parent="I9quofNEpU8VXG3aymKs-1" vertex="1">
          <mxGeometry x="720" y="641" width="80" height="30" as="geometry" />
        </mxCell>
        <mxCell id="AuQEcXMW1UDqbLSpXY6g-22" value="" style="endArrow=classic;html=1;" parent="I9quofNEpU8VXG3aymKs-1" edge="1">
          <mxGeometry width="50" height="50" relative="1" as="geometry">
            <mxPoint x="759.5" y="671" as="sourcePoint" />
            <mxPoint x="760" y="701" as="targetPoint" />
          </mxGeometry>
        </mxCell>
        <mxCell id="AuQEcXMW1UDqbLSpXY6g-23" value="" style="edgeStyle=elbowEdgeStyle;elbow=horizontal;endArrow=classic;html=1;entryX=0;entryY=0.5;entryDx=0;entryDy=0;exitX=0;exitY=0.5;exitDx=0;exitDy=0;" parent="I9quofNEpU8VXG3aymKs-1" source="I9quofNEpU8VXG3aymKs-180" target="AuQEcXMW1UDqbLSpXY6g-21" edge="1">
          <mxGeometry width="50" height="50" relative="1" as="geometry">
            <mxPoint x="770" y="630" as="sourcePoint" />
            <mxPoint x="810" y="495" as="targetPoint" />
            <Array as="points">
              <mxPoint x="680" y="581" />
            </Array>
          </mxGeometry>
        </mxCell>
        <mxCell id="AuQEcXMW1UDqbLSpXY6g-24" value="" style="rounded=0;whiteSpace=wrap;html=1;strokeWidth=2;" parent="I9quofNEpU8VXG3aymKs-1" vertex="1">
          <mxGeometry x="920" y="642.5" width="80" height="30" as="geometry" />
        </mxCell>
        <mxCell id="AuQEcXMW1UDqbLSpXY6g-25" value="" style="rounded=0;whiteSpace=wrap;html=1;strokeWidth=2;" parent="I9quofNEpU8VXG3aymKs-1" vertex="1">
          <mxGeometry x="920" y="541.5" width="80" height="30" as="geometry" />
        </mxCell>
        <mxCell id="AuQEcXMW1UDqbLSpXY6g-26" value="" style="endArrow=classic;html=1;" parent="I9quofNEpU8VXG3aymKs-1" edge="1">
          <mxGeometry width="50" height="50" relative="1" as="geometry">
            <mxPoint x="959.5" y="572" as="sourcePoint" />
            <mxPoint x="959.5" y="592" as="targetPoint" />
          </mxGeometry>
        </mxCell>
        <mxCell id="AuQEcXMW1UDqbLSpXY6g-27" value="" style="endArrow=classic;html=1;" parent="I9quofNEpU8VXG3aymKs-1" edge="1">
          <mxGeometry width="50" height="50" relative="1" as="geometry">
            <mxPoint x="959.5" y="672.5" as="sourcePoint" />
            <mxPoint x="959.5" y="692.5" as="targetPoint" />
          </mxGeometry>
        </mxCell>
        <mxCell id="AuQEcXMW1UDqbLSpXY6g-28" value="" style="edgeStyle=elbowEdgeStyle;elbow=horizontal;endArrow=classic;html=1;exitX=1;exitY=0.5;exitDx=0;exitDy=0;" parent="I9quofNEpU8VXG3aymKs-1" source="I9quofNEpU8VXG3aymKs-229" edge="1">
          <mxGeometry width="50" height="50" relative="1" as="geometry">
            <mxPoint x="1000" y="551.5" as="sourcePoint" />
            <mxPoint x="1000" y="501.5" as="targetPoint" />
            <Array as="points">
              <mxPoint x="1040" y="551.5" />
            </Array>
          </mxGeometry>
        </mxCell>
      </root>
    </mxGraphModel>
  </diagram>
  <diagram id="J8kPp8ogu6JoQhHR0IQE" name="Page-3">
    <mxGraphModel dx="1426" dy="716" grid="1" gridSize="10" guides="1" tooltips="1" connect="1" arrows="1" fold="1" page="1" pageScale="1" pageWidth="827" pageHeight="1169" math="0" shadow="0">
      <root>
        <mxCell id="wYt7xD2OG4ZlumYZwWRP-0" />
        <mxCell id="wYt7xD2OG4ZlumYZwWRP-1" parent="wYt7xD2OG4ZlumYZwWRP-0" />
        <mxCell id="wYt7xD2OG4ZlumYZwWRP-2" value="" style="rounded=1;arcSize=10;dashed=1;strokeColor=#000000;fillColor=none;gradientColor=none;dashPattern=8 3 1 3;strokeWidth=2;sketch=0;" vertex="1" parent="wYt7xD2OG4ZlumYZwWRP-1">
          <mxGeometry x="40" y="305" width="400" height="375" as="geometry" />
        </mxCell>
        <mxCell id="wYt7xD2OG4ZlumYZwWRP-3" value="" style="rounded=1;arcSize=10;dashed=1;strokeColor=#000000;fillColor=none;gradientColor=none;dashPattern=8 3 1 3;strokeWidth=2;sketch=0;" vertex="1" parent="wYt7xD2OG4ZlumYZwWRP-1">
          <mxGeometry x="870" y="300" width="200" height="380" as="geometry" />
        </mxCell>
        <mxCell id="wYt7xD2OG4ZlumYZwWRP-5" value="" style="rounded=1;arcSize=10;dashed=1;strokeColor=#000000;fillColor=none;gradientColor=none;dashPattern=8 3 1 3;strokeWidth=2;sketch=0;" vertex="1" parent="wYt7xD2OG4ZlumYZwWRP-1">
          <mxGeometry x="500" y="305" width="310" height="375" as="geometry" />
        </mxCell>
        <mxCell id="wYt7xD2OG4ZlumYZwWRP-11" value="&lt;b&gt;Green&lt;/b&gt;" style="rounded=1;whiteSpace=wrap;html=1;sketch=0;strokeWidth=2;fillColor=none;" vertex="1" parent="wYt7xD2OG4ZlumYZwWRP-1">
          <mxGeometry x="80" y="437" width="120" height="60" as="geometry" />
        </mxCell>
        <mxCell id="wYt7xD2OG4ZlumYZwWRP-12" value="&lt;b&gt;Refactor&lt;/b&gt;" style="rounded=1;whiteSpace=wrap;html=1;sketch=0;strokeWidth=2;fillColor=none;" vertex="1" parent="wYt7xD2OG4ZlumYZwWRP-1">
          <mxGeometry x="280" y="398" width="120" height="60" as="geometry" />
        </mxCell>
        <mxCell id="wYt7xD2OG4ZlumYZwWRP-13" value="&lt;b&gt;Red&lt;/b&gt;" style="rounded=1;whiteSpace=wrap;html=1;sketch=0;strokeWidth=2;fillColor=none;" vertex="1" parent="wYt7xD2OG4ZlumYZwWRP-1">
          <mxGeometry x="80" y="356" width="120" height="60" as="geometry" />
        </mxCell>
        <mxCell id="wYt7xD2OG4ZlumYZwWRP-14" value="" style="edgeStyle=segmentEdgeStyle;endArrow=classic;html=1;" edge="1" parent="wYt7xD2OG4ZlumYZwWRP-1">
          <mxGeometry width="50" height="50" relative="1" as="geometry">
            <mxPoint x="140" y="415" as="sourcePoint" />
            <mxPoint x="140" y="439" as="targetPoint" />
            <Array as="points">
              <mxPoint x="140" y="429" />
              <mxPoint x="140" y="429" />
            </Array>
          </mxGeometry>
        </mxCell>
        <mxCell id="wYt7xD2OG4ZlumYZwWRP-15" value="&lt;b&gt;Build,&lt;br&gt;Code Scanning &amp;amp; Unit Testing&lt;br&gt;&lt;/b&gt;" style="rounded=1;whiteSpace=wrap;html=1;sketch=0;strokeWidth=2;fillColor=none;" vertex="1" parent="wYt7xD2OG4ZlumYZwWRP-1">
          <mxGeometry x="609" y="515" width="120" height="60" as="geometry" />
        </mxCell>
        <mxCell id="wYt7xD2OG4ZlumYZwWRP-16" value="Merge Request" style="text;html=1;strokeColor=none;fillColor=none;align=center;verticalAlign=middle;whiteSpace=wrap;rounded=0;sketch=0;" vertex="1" parent="wYt7xD2OG4ZlumYZwWRP-1">
          <mxGeometry x="510" y="440" width="90" height="20" as="geometry" />
        </mxCell>
        <mxCell id="wYt7xD2OG4ZlumYZwWRP-18" value="&lt;b&gt;&lt;font style=&quot;font-size: 14px&quot;&gt;Visual Studio Code&lt;/font&gt;&lt;/b&gt;" style="text;html=1;strokeColor=none;fillColor=none;align=center;verticalAlign=middle;whiteSpace=wrap;rounded=0;sketch=0;" vertex="1" parent="wYt7xD2OG4ZlumYZwWRP-1">
          <mxGeometry x="60" y="320" width="130" height="20" as="geometry" />
        </mxCell>
        <mxCell id="wYt7xD2OG4ZlumYZwWRP-19" value="TDD" style="text;html=1;strokeColor=none;fillColor=none;align=center;verticalAlign=middle;whiteSpace=wrap;rounded=0;sketch=0;" vertex="1" parent="wYt7xD2OG4ZlumYZwWRP-1">
          <mxGeometry x="220" y="419" width="40" height="20" as="geometry" />
        </mxCell>
        <mxCell id="wYt7xD2OG4ZlumYZwWRP-20" value="&lt;b&gt;Review &amp;amp; Approve&lt;/b&gt;" style="rounded=1;whiteSpace=wrap;html=1;sketch=0;strokeWidth=2;fillColor=none;" vertex="1" parent="wYt7xD2OG4ZlumYZwWRP-1">
          <mxGeometry x="609" y="435" width="120" height="60" as="geometry" />
        </mxCell>
        <mxCell id="wYt7xD2OG4ZlumYZwWRP-21" value="&lt;b&gt;Merge&lt;/b&gt;" style="rounded=1;whiteSpace=wrap;html=1;sketch=0;strokeWidth=2;fillColor=none;" vertex="1" parent="wYt7xD2OG4ZlumYZwWRP-1">
          <mxGeometry x="609" y="595" width="120" height="60" as="geometry" />
        </mxCell>
        <mxCell id="wYt7xD2OG4ZlumYZwWRP-22" value="" style="endArrow=classic;html=1;exitX=0.5;exitY=1;exitDx=0;exitDy=0;" edge="1" parent="wYt7xD2OG4ZlumYZwWRP-1" source="wYt7xD2OG4ZlumYZwWRP-20" target="wYt7xD2OG4ZlumYZwWRP-15">
          <mxGeometry width="50" height="50" relative="1" as="geometry">
            <mxPoint x="879" y="335" as="sourcePoint" />
            <mxPoint x="929" y="285" as="targetPoint" />
          </mxGeometry>
        </mxCell>
        <mxCell id="wYt7xD2OG4ZlumYZwWRP-23" value="" style="endArrow=classic;html=1;exitX=0.5;exitY=1;exitDx=0;exitDy=0;" edge="1" parent="wYt7xD2OG4ZlumYZwWRP-1" source="wYt7xD2OG4ZlumYZwWRP-15" target="wYt7xD2OG4ZlumYZwWRP-21">
          <mxGeometry width="50" height="50" relative="1" as="geometry">
            <mxPoint x="999" y="345" as="sourcePoint" />
            <mxPoint x="1049" y="295" as="targetPoint" />
          </mxGeometry>
        </mxCell>
        <mxCell id="wYt7xD2OG4ZlumYZwWRP-25" value="&lt;font style=&quot;font-size: 18px&quot;&gt;×&lt;/font&gt;" style="text;html=1;align=center;verticalAlign=middle;resizable=0;points=[];autosize=1;rotation=90;" vertex="1" parent="wYt7xD2OG4ZlumYZwWRP-1">
          <mxGeometry x="774" y="495" width="30" height="20" as="geometry" />
        </mxCell>
        <mxCell id="wYt7xD2OG4ZlumYZwWRP-26" value="&lt;b&gt;&lt;font style=&quot;font-size: 14px&quot;&gt;SCM&lt;/font&gt;&lt;/b&gt;" style="text;html=1;strokeColor=none;fillColor=none;align=center;verticalAlign=middle;whiteSpace=wrap;rounded=0;sketch=0;" vertex="1" parent="wYt7xD2OG4ZlumYZwWRP-1">
          <mxGeometry x="520" y="316" width="40" height="20" as="geometry" />
        </mxCell>
        <mxCell id="wYt7xD2OG4ZlumYZwWRP-27" value="&lt;b&gt;E2E Testing&lt;/b&gt;" style="rounded=1;whiteSpace=wrap;html=1;sketch=0;strokeWidth=2;fillColor=none;" vertex="1" parent="wYt7xD2OG4ZlumYZwWRP-1">
          <mxGeometry x="910" y="520" width="120" height="60" as="geometry" />
        </mxCell>
        <mxCell id="wYt7xD2OG4ZlumYZwWRP-28" value="&lt;b&gt;Deploy&lt;/b&gt;" style="rounded=1;whiteSpace=wrap;html=1;sketch=0;strokeWidth=2;fillColor=none;" vertex="1" parent="wYt7xD2OG4ZlumYZwWRP-1">
          <mxGeometry x="910" y="440" width="120" height="60" as="geometry" />
        </mxCell>
        <mxCell id="wYt7xD2OG4ZlumYZwWRP-29" value="&lt;b&gt;&lt;font style=&quot;font-size: 12px&quot;&gt;√&lt;/font&gt;&lt;/b&gt;" style="text;html=1;strokeColor=none;fillColor=none;align=center;verticalAlign=middle;whiteSpace=wrap;rounded=0;sketch=0;" vertex="1" parent="wYt7xD2OG4ZlumYZwWRP-1">
          <mxGeometry x="669" y="495" width="40" height="20" as="geometry" />
        </mxCell>
        <mxCell id="wYt7xD2OG4ZlumYZwWRP-30" value="&lt;b&gt;&lt;font style=&quot;font-size: 12px&quot;&gt;√&lt;/font&gt;&lt;/b&gt;" style="text;html=1;strokeColor=none;fillColor=none;align=center;verticalAlign=middle;whiteSpace=wrap;rounded=0;sketch=0;" vertex="1" parent="wYt7xD2OG4ZlumYZwWRP-1">
          <mxGeometry x="669" y="575" width="40" height="20" as="geometry" />
        </mxCell>
        <mxCell id="wYt7xD2OG4ZlumYZwWRP-31" value="&lt;b&gt;&lt;font style=&quot;font-size: 14px&quot;&gt;Gecko&lt;/font&gt;&lt;/b&gt;" style="text;html=1;strokeColor=none;fillColor=none;align=center;verticalAlign=middle;whiteSpace=wrap;rounded=0;sketch=0;" vertex="1" parent="wYt7xD2OG4ZlumYZwWRP-1">
          <mxGeometry x="890" y="390" width="40" height="20" as="geometry" />
        </mxCell>
        <mxCell id="wYt7xD2OG4ZlumYZwWRP-32" value="&lt;font style=&quot;font-size: 20px&quot;&gt;&lt;b&gt;Continuous Integration&lt;/b&gt;&lt;/font&gt;" style="text;html=1;strokeColor=none;fillColor=none;align=center;verticalAlign=middle;whiteSpace=wrap;rounded=0;sketch=0;" vertex="1" parent="wYt7xD2OG4ZlumYZwWRP-1">
          <mxGeometry x="40" y="198" width="230" height="20" as="geometry" />
        </mxCell>
        <mxCell id="wYt7xD2OG4ZlumYZwWRP-33" value="&lt;font style=&quot;font-size: 20px&quot;&gt;&lt;b&gt;Continuous Deployment&lt;/b&gt;&lt;/font&gt;" style="text;html=1;strokeColor=none;fillColor=none;align=center;verticalAlign=middle;whiteSpace=wrap;rounded=0;sketch=0;" vertex="1" parent="wYt7xD2OG4ZlumYZwWRP-1">
          <mxGeometry x="870" y="223" width="240" height="20" as="geometry" />
        </mxCell>
        <mxCell id="wYt7xD2OG4ZlumYZwWRP-34" value="" style="endArrow=classic;html=1;" edge="1" parent="wYt7xD2OG4ZlumYZwWRP-1">
          <mxGeometry width="50" height="50" relative="1" as="geometry">
            <mxPoint x="969.5" y="500" as="sourcePoint" />
            <mxPoint x="969.5" y="520" as="targetPoint" />
            <Array as="points" />
          </mxGeometry>
        </mxCell>
        <mxCell id="wYt7xD2OG4ZlumYZwWRP-37" value="" style="edgeStyle=segmentEdgeStyle;endArrow=classic;html=1;entryX=0.5;entryY=1;entryDx=0;entryDy=0;exitX=1;exitY=0.5;exitDx=0;exitDy=0;" edge="1" parent="wYt7xD2OG4ZlumYZwWRP-1" source="wYt7xD2OG4ZlumYZwWRP-11" target="wYt7xD2OG4ZlumYZwWRP-12">
          <mxGeometry width="50" height="50" relative="1" as="geometry">
            <mxPoint x="310" y="610" as="sourcePoint" />
            <mxPoint x="360" y="560" as="targetPoint" />
          </mxGeometry>
        </mxCell>
        <mxCell id="wYt7xD2OG4ZlumYZwWRP-38" value="&lt;b&gt;Style&lt;/b&gt;" style="rounded=1;whiteSpace=wrap;html=1;sketch=0;strokeWidth=2;fillColor=none;" vertex="1" parent="wYt7xD2OG4ZlumYZwWRP-1">
          <mxGeometry x="80" y="517" width="120" height="60" as="geometry" />
        </mxCell>
        <mxCell id="wYt7xD2OG4ZlumYZwWRP-39" value="&lt;b&gt;Snapshot&lt;/b&gt;" style="rounded=1;whiteSpace=wrap;html=1;sketch=0;strokeWidth=2;fillColor=none;" vertex="1" parent="wYt7xD2OG4ZlumYZwWRP-1">
          <mxGeometry x="80" y="597" width="120" height="60" as="geometry" />
        </mxCell>
        <mxCell id="wYt7xD2OG4ZlumYZwWRP-40" value="" style="edgeStyle=segmentEdgeStyle;endArrow=classic;html=1;" edge="1" parent="wYt7xD2OG4ZlumYZwWRP-1">
          <mxGeometry width="50" height="50" relative="1" as="geometry">
            <mxPoint x="140" y="497" as="sourcePoint" />
            <mxPoint x="140" y="517" as="targetPoint" />
            <Array as="points">
              <mxPoint x="140" y="517" />
            </Array>
          </mxGeometry>
        </mxCell>
        <mxCell id="wYt7xD2OG4ZlumYZwWRP-41" value="" style="edgeStyle=segmentEdgeStyle;endArrow=classic;html=1;exitX=0.5;exitY=1;exitDx=0;exitDy=0;" edge="1" parent="wYt7xD2OG4ZlumYZwWRP-1" source="wYt7xD2OG4ZlumYZwWRP-38">
          <mxGeometry width="50" height="50" relative="1" as="geometry">
            <mxPoint x="150" y="577" as="sourcePoint" />
            <mxPoint x="140" y="597" as="targetPoint" />
            <Array as="points">
              <mxPoint x="140" y="597" />
            </Array>
          </mxGeometry>
        </mxCell>
        <mxCell id="wYt7xD2OG4ZlumYZwWRP-42" value="" style="edgeStyle=elbowEdgeStyle;elbow=horizontal;endArrow=classic;html=1;" edge="1" parent="wYt7xD2OG4ZlumYZwWRP-1" target="wYt7xD2OG4ZlumYZwWRP-20">
          <mxGeometry width="50" height="50" relative="1" as="geometry">
            <mxPoint x="200" y="625" as="sourcePoint" />
            <mxPoint x="350" y="610" as="targetPoint" />
            <Array as="points">
              <mxPoint x="470" y="550" />
            </Array>
          </mxGeometry>
        </mxCell>
        <mxCell id="wYt7xD2OG4ZlumYZwWRP-43" value="" style="edgeStyle=elbowEdgeStyle;elbow=horizontal;endArrow=classic;html=1;exitX=1;exitY=0.5;exitDx=0;exitDy=0;" edge="1" parent="wYt7xD2OG4ZlumYZwWRP-1" source="wYt7xD2OG4ZlumYZwWRP-20">
          <mxGeometry width="50" height="50" relative="1" as="geometry">
            <mxPoint x="790" y="480" as="sourcePoint" />
            <mxPoint x="200" y="390" as="targetPoint" />
            <Array as="points">
              <mxPoint x="770" y="450" />
            </Array>
          </mxGeometry>
        </mxCell>
        <mxCell id="wYt7xD2OG4ZlumYZwWRP-44" value="" style="edgeStyle=elbowEdgeStyle;elbow=horizontal;endArrow=classic;html=1;exitX=1;exitY=0.5;exitDx=0;exitDy=0;" edge="1" parent="wYt7xD2OG4ZlumYZwWRP-1" source="wYt7xD2OG4ZlumYZwWRP-15">
          <mxGeometry width="50" height="50" relative="1" as="geometry">
            <mxPoint x="740" y="480" as="sourcePoint" />
            <mxPoint x="200" y="390" as="targetPoint" />
            <Array as="points">
              <mxPoint x="770" y="470" />
            </Array>
          </mxGeometry>
        </mxCell>
        <mxCell id="wYt7xD2OG4ZlumYZwWRP-45" value="" style="edgeStyle=elbowEdgeStyle;elbow=horizontal;endArrow=classic;html=1;exitX=1;exitY=0.5;exitDx=0;exitDy=0;entryX=0;entryY=0.5;entryDx=0;entryDy=0;" edge="1" parent="wYt7xD2OG4ZlumYZwWRP-1" source="wYt7xD2OG4ZlumYZwWRP-21" target="wYt7xD2OG4ZlumYZwWRP-28">
          <mxGeometry width="50" height="50" relative="1" as="geometry">
            <mxPoint x="780" y="650" as="sourcePoint" />
            <mxPoint x="830" y="600" as="targetPoint" />
            <Array as="points">
              <mxPoint x="840" y="550" />
            </Array>
          </mxGeometry>
        </mxCell>
        <mxCell id="wYt7xD2OG4ZlumYZwWRP-46" value="&lt;b&gt;Report&lt;/b&gt;" style="rounded=1;whiteSpace=wrap;html=1;sketch=0;strokeWidth=2;fillColor=none;" vertex="1" parent="wYt7xD2OG4ZlumYZwWRP-1">
          <mxGeometry x="910" y="600" width="120" height="60" as="geometry" />
        </mxCell>
        <mxCell id="wYt7xD2OG4ZlumYZwWRP-47" value="" style="endArrow=classic;html=1;exitX=0.5;exitY=1;exitDx=0;exitDy=0;" edge="1" parent="wYt7xD2OG4ZlumYZwWRP-1" source="wYt7xD2OG4ZlumYZwWRP-27" target="wYt7xD2OG4ZlumYZwWRP-46">
          <mxGeometry width="50" height="50" relative="1" as="geometry">
            <mxPoint x="979.5" y="510" as="sourcePoint" />
            <mxPoint x="979.5" y="530" as="targetPoint" />
            <Array as="points" />
          </mxGeometry>
        </mxCell>
        <mxCell id="wYt7xD2OG4ZlumYZwWRP-48" value="" style="endArrow=none;dashed=1;html=1;" edge="1" parent="wYt7xD2OG4ZlumYZwWRP-1">
          <mxGeometry width="50" height="50" relative="1" as="geometry">
            <mxPoint x="840" y="723" as="sourcePoint" />
            <mxPoint x="840" y="200" as="targetPoint" />
          </mxGeometry>
        </mxCell>
        <mxCell id="wYt7xD2OG4ZlumYZwWRP-49" value="" style="edgeStyle=segmentEdgeStyle;endArrow=classic;html=1;entryX=1;entryY=0.5;entryDx=0;entryDy=0;exitX=0.5;exitY=0;exitDx=0;exitDy=0;" edge="1" parent="wYt7xD2OG4ZlumYZwWRP-1" source="wYt7xD2OG4ZlumYZwWRP-12">
          <mxGeometry width="50" height="50" relative="1" as="geometry">
            <mxPoint x="340" y="395" as="sourcePoint" />
            <mxPoint x="200" y="390" as="targetPoint" />
            <Array as="points">
              <mxPoint x="340" y="390" />
            </Array>
          </mxGeometry>
        </mxCell>
      </root>
    </mxGraphModel>
  </diagram>
</mxfile>
